<svg width="18" height="21" viewBox="0 0 18 21" fill="none" xmlns="http://www.w3.org/2000/svg">
<path d="M17.7253 15.5402C16.6513 12.9724 14.742 11.3378 12.0713 10.6274C11.7055 10.5304 11.3268 10.4793 10.9338 10.4032C13.5253 9.31136 14.707 6.67011 14.2076 4.3238C13.6888 1.88965 11.6627 0.117464 9.28779 0.00604626C6.85318 -0.107993 4.67928 1.40073 3.93606 3.71952C3.56769 4.8704 3.56899 6.02258 3.97238 7.15904C4.51845 8.6966 5.57167 9.75703 7.09703 10.4164C6.9336 10.4413 6.82594 10.4583 6.71828 10.4753C5.70916 10.6313 4.73895 10.9328 3.84656 11.427C2.24597 12.3144 1.08898 13.6304 0.337975 15.3122C-0.189934 16.4932 -0.109515 17.6414 0.65057 18.673C1.64543 20.0231 2.96066 20.7847 4.68706 20.769C7.56268 20.7415 10.4396 20.7467 13.3152 20.769C14.8315 20.7808 16.078 20.225 17.0741 19.0886C17.9899 18.0425 18.2648 16.8314 17.7253 15.5416V15.5402ZM13.214 11.8058C12.3489 13.3512 11.4915 14.8848 10.6341 16.4185C10.6173 16.4172 10.6017 16.4145 10.5849 16.4132C10.533 16.0711 10.4798 15.7303 10.4305 15.3882C10.3267 14.6594 10.2217 13.9319 10.1283 13.2018C10.1153 13.1009 10.1594 12.9921 10.1841 12.8885C10.1931 12.8518 10.2191 12.8164 10.2411 12.7836C10.5849 12.296 10.8365 11.7927 10.4655 11.1504C11.4643 11.1963 12.3411 11.4086 13.214 11.8071V11.8058ZM4.39652 5.40389C4.39652 2.84784 6.44719 0.775482 8.97649 0.775482C11.5058 0.775482 13.5565 2.84784 13.5565 5.40389C13.5565 7.95993 11.5058 10.0323 8.97649 10.0323C8.95055 10.0323 8.92461 10.031 8.89866 10.0297C8.86883 10.0297 8.839 10.0297 8.80917 10.0271C8.72097 10.0244 8.63276 10.0192 8.54586 10.01C8.52381 10.0074 8.50176 10.0061 8.47971 10.0035C8.38762 9.99297 8.29682 9.97986 8.20603 9.96413C8.18008 9.9602 8.15544 9.95496 8.1295 9.95103C6.00489 9.54992 4.39652 7.66631 4.39652 5.40389ZM9.78067 12.0955C9.60557 12.6119 9.27092 12.7784 8.75858 12.6945C8.62887 12.6735 8.53808 12.6552 8.48619 12.5254C8.44988 12.4376 8.41096 12.3445 8.35 12.2737C8.07762 11.9539 8.14636 11.6131 8.28255 11.271C8.3046 11.2172 8.38762 11.1556 8.44469 11.1543C8.88569 11.1452 9.328 11.1491 9.79105 11.1491C9.8157 11.2998 9.82348 11.4296 9.8598 11.5515C9.91946 11.7507 9.84293 11.9093 9.78067 12.0955ZM7.45632 11.1517C7.45632 11.1871 7.46151 11.2055 7.45632 11.2186C7.21247 11.7665 7.34866 12.2475 7.69757 12.7011C7.83377 12.878 7.90121 13.0694 7.85971 13.3211C7.69368 14.3448 7.55749 15.3725 7.40962 16.4001C7.39146 16.4067 7.3733 16.4119 7.35514 16.4185C6.49778 14.8862 5.64041 13.3538 4.77526 11.8071C5.6469 11.4086 6.52761 11.1923 7.45632 11.153V11.1517ZM8.23067 19.9917C6.99456 19.9917 5.75845 19.9917 4.52234 19.9917C3.10723 19.9917 2.03325 19.3258 1.21999 18.2103C0.740068 17.551 0.636302 16.7789 0.929441 16.0161C1.55463 14.3894 2.63769 13.1349 4.12543 12.1885C5.57037 14.7892 7.00234 17.3675 8.45117 19.9747C8.36038 19.9825 8.29423 19.9917 8.22937 19.9917H8.23067ZM8.99594 19.4149C8.6613 18.8054 8.35389 18.2457 8.05167 17.6847C8.02444 17.6336 8.01536 17.5615 8.02314 17.5025C8.20473 16.1629 8.38891 14.8246 8.5744 13.4705H9.4136C9.54331 14.4103 9.67302 15.3436 9.80143 16.2769C9.8559 16.6728 9.90909 17.0699 9.95967 17.4658C9.96745 17.5261 9.97913 17.6008 9.95189 17.6506C9.64448 18.2261 9.33059 18.7962 8.99465 19.4149H8.99594ZM16.8549 18.0504C16.266 18.9182 15.5073 19.5998 14.4579 19.8645C14.2361 19.9209 14.0065 19.9773 13.7808 19.9786C12.38 19.9891 10.9792 19.9838 9.53293 19.9838C10.9818 17.3753 12.4189 14.7878 13.8626 12.1899C14.9041 12.7941 15.7342 13.5937 16.3517 14.6043C16.6163 15.0382 16.851 15.4957 17.0495 15.9649C17.353 16.6846 17.2855 17.4147 16.8549 18.0504Z" fill="#1F5CB8"/>
</svg>
