<svg width="18" height="18" viewBox="0 0 18 18" fill="none" xmlns="http://www.w3.org/2000/svg">
<g opacity="0.4">
<path d="M4.08363 18C1.96399 18 0.183335 16.4822 0.0287774 14.545C0.0105942 14.3198 0.00279853 14.1161 0.00149973 13.9207C0.000200925 10.7944 -0.00109788 11.8758 0.00149973 8.7496C0.00149973 7.7941 0.00929571 6.81716 0.0209849 5.84736C0.046961 3.76004 1.78476 2.16 4.06156 2.12545C4.16416 2.12426 4.26677 2.12307 4.37197 2.12307C4.37197 2.12307 4.84603 2.12426 4.95253 2.12426C5.07462 2.12426 5.17333 2.03371 5.17333 1.92172C5.17333 1.7728 5.17333 1.62625 5.17203 1.48448C5.17073 1.16399 5.16814 0.861378 5.17593 0.558764C5.18242 0.289509 5.38244 0.0655268 5.66168 0.0131054C5.70974 0.00476567 5.75779 0 5.80455 0C6.06431 0 6.28511 0.133437 6.37862 0.346696C6.41889 0.437242 6.43967 0.555191 6.44356 0.706498C6.45136 0.982901 6.45005 1.25692 6.44876 1.54643C6.44876 1.66319 6.44876 1.78113 6.44876 1.90027C6.44876 2.01226 6.54747 2.10281 6.66955 2.10281H11.2452C11.3673 2.10281 11.466 2.01226 11.466 1.90027C11.466 1.76684 11.466 1.6334 11.466 1.49997C11.466 1.19973 11.4634 0.889971 11.4686 0.586166C11.4751 0.257341 11.731 0.0131052 12.0778 0.00357403H12.0998C12.4713 0.00357403 12.735 0.249002 12.7402 0.600464C12.7453 0.898312 12.7441 1.1902 12.7428 1.49877C12.7428 1.6334 12.7428 1.76922 12.7428 1.90623C12.7428 2.01822 12.7851 2.10281 12.9636 2.10877C12.9636 2.10877 12.8612 2.11472 14.3417 2.10877C15.8222 2.10281 17.4558 3.32637 17.8805 5.04913C17.9428 5.3029 17.974 5.59122 17.9753 5.93195C17.9831 8.4172 17.987 10.9036 17.9909 13.3889C17.9935 15.0139 17.9961 12.4302 18 14.0553C18.0026 14.987 17.7584 15.7506 17.2558 16.3904C16.4219 17.4508 15.3011 17.9905 13.9243 17.9917C11.4553 17.9952 15.1923 17.9964 12.7233 17.9964C11.1192 17.9964 4.08493 17.994 4.08493 17.994L4.08363 18ZM1.53928 9.02839C1.42369 9.02839 1.32758 9.11059 1.31849 9.21663L1.31199 9.28692C1.3081 9.33338 1.3042 9.36913 1.3042 9.40606C1.3042 12.4668 1.3042 11.3187 1.3068 14.3793C1.3068 14.4747 1.31719 14.5688 1.33667 14.6617C1.62501 16.0175 2.7147 16.8277 4.25248 16.8289C6.28511 16.8289 8.31903 16.8289 10.3517 16.8289C13.5506 16.8289 10.5423 16.8289 13.7412 16.8253C14.0334 16.8253 14.301 16.7991 14.5361 16.7478C15.8219 16.4679 16.6869 15.4659 16.6882 14.2554C16.6908 12.0859 16.6908 14.1228 16.6908 11.9533V9.22854C16.6908 9.11655 16.5921 9.026 16.47 9.026H1.53798L1.53928 9.02839ZM4.3382 3.2954C4.22131 3.2954 4.10702 3.2954 3.99142 3.29897C2.67054 3.3359 1.56915 4.18775 1.37303 5.32553C1.28991 5.80566 1.29381 6.29771 1.29771 6.77308C1.29901 6.97561 1.3003 7.1853 1.29511 7.38903C1.29381 7.45336 1.29901 7.51412 1.3042 7.5725C1.3068 7.59514 1.3081 7.61778 1.30939 7.64041C1.31589 7.74764 1.4133 7.83103 1.53019 7.83103H16.4778C16.5999 7.83103 16.6986 7.74049 16.6986 7.6285C16.6986 7.43192 16.6999 7.23653 16.7025 7.04352C16.7064 6.60986 16.7103 6.20002 16.6947 5.78065C16.6401 4.30808 15.4271 3.27991 13.7438 3.27991C13.5535 3.27991 13.079 3.27991 12.9584 3.30969C12.8363 3.30969 12.7376 3.40024 12.7376 3.51223C12.7376 3.64567 12.7376 3.77791 12.7389 3.90896C12.7402 4.20681 12.7428 4.48798 12.735 4.77392C12.7259 5.07653 12.4778 5.316 12.144 5.34459C12.1271 5.34579 12.1102 5.34698 12.0947 5.34698C11.805 5.34698 11.5414 5.14563 11.4803 4.87757C11.4621 4.79894 11.4634 4.70839 11.4647 4.61189C11.4647 4.58329 11.4647 4.5547 11.4647 4.52611C11.4634 4.28425 11.4634 4.04121 11.4647 3.80293V3.51819C11.4647 3.4062 11.366 3.31565 11.2439 3.31565H6.66825C6.54617 3.31565 6.44746 3.4062 6.44746 3.51819V3.86607C6.44746 4.12222 6.44746 4.37123 6.44746 4.62142C6.44616 5.05628 6.19289 5.34817 5.81754 5.34817C5.63441 5.34579 5.46297 5.27549 5.34607 5.15993C5.21749 5.03364 5.15515 4.85493 5.16814 4.64644C5.18372 4.3891 5.17983 4.13652 5.17593 3.86846C5.17463 3.74813 5.17203 3.6266 5.17203 3.50151C5.17203 3.38952 5.07333 3.29897 4.95124 3.29897C4.84084 3.29897 4.73434 3.29897 4.63043 3.29778C4.53172 3.29778 4.43431 3.29659 4.3395 3.29659L4.3382 3.2954Z" fill="black"/>
</g>
</svg>
